<?xml version="1.0" encoding="utf-8"?>
<svg version="1.1" id="logo" xmlns="http://www.w3.org/2000/svg" xmlns:xlink="http://www.w3.org/1999/xlink" x="0px" y="0px" viewBox="0 0 1141.11 308.28" style="enable-background:new 0 0 1141.11 308.28;" xml:space="preserve">
	<defs>
		<style>
			.filled {
				fill: #495867;
			}
		</style>
	</defs>
	<g>
		<!-- Letters 'Le S' -->
		<path class="filled" d="M390.56,170.37c-12.86-4.17-27.1-6.53-42.33-6.97c-15.37-0.45-30.36-0.69-44.51-0.69c-8.56,0-16.63-0.3-23.99-0.91
			c-7.53-0.6-14.21-1.93-19.91-3.93c-5.8-2.04-10.43-4.93-13.76-8.57c-3.41-3.74-5.14-8.73-5.14-14.83
			c0-13.23,7.51-24.06,22.33-32.17c14.54-7.96,34.43-12,59.11-12c10.93,0,21.2,1.02,30.53,2.99c9.3,2,17.43,4.47,24.13,7.37
			c6.77,2.93,12.09,5.99,15.8,9.07c4.03,3.36,5.97,6.24,5.97,8.83c0,2.73-0.11,4.3-0.27,5.24c1.49,0.94,3.47,0.37,4.23-1.21
			l20.89-43.67c0.73-1.52,0.03-3.34-1.52-3.99l-0.32-0.13c-1.34,1.3-2.69,2.47-3.99,3.51c-1.78,1.43-4.45,2.13-8.16,2.13
			c-3.26,0-7.14-0.92-11.9-2.83c-4.44-1.77-10.22-3.76-17.17-5.87c-6.94-2.1-15.23-4.09-24.61-5.87c-9.42-1.79-20.72-2.7-33.6-2.7
			c-16.48,0-31.97,1.82-46.03,5.41c-14.03,3.59-26.37,8.57-36.66,14.84c-7.67,4.66-14.19,10.09-19.47,16.19
			c-0.25-0.34-0.49-0.68-0.76-1c-4.19-5.05-10.33-8.23-17.31-8.96c-8.81-0.91-15.59,4.62-16.77,10.29c-1.08,5.1,2.35,9.19,8.74,10.4
			l0.19,0.03c2.9,0.3,5.66-0.43,7.72-2.06c2.23-1.76,3.45-4.36,3.24-6.97c-0.1-1.46,1.3-1.94,1.57-2.03
			c0.36-0.11,1.61-0.39,2.51,0.66c3.55,4.09,5.16,10.36-0.97,15.74c-2.73,2.53-9.24,5.74-48.84,6.87
			c10.76-8.31,11.93-9.27,17.04-18.16c1.08-1.87,1.09-2.89,0.75-4c-0.19-0.62-0.53-1.07-1.01-1.41c-0.67-0.47-1.54-0.62-2.44-0.41
			c-1.4,0.3-2.37,0.88-3.46,3.01c-6.01,10.37-12.65,17.06-28.75,20.58c-6.05,1.31-8.95,0.1-10.33-4.33
			c-0.89-2.83-1.09-6.43-0.61-10.4c22.56-9.9,38.89-26.65,35.75-36.71c-0.95-3.1-2.95-5.26-5.96-6.43
			c-3.16-1.24-7.39-1.29-12.58-0.16c-9.34,2.03-19.94,10.13-27.68,21.13c-8.09,11.53-11.25,23.83-8.42,32.9
			c0.58,1.84,1.3,3.53,2.19,5.04c-13.56,0.11-29.59,0.24-35.79,0.72c1.42-3.51,2.7-7.3,3.91-11.51c1.73-5.96,3.25-12.5,4.9-21.22
			c22.45-10.64,38.89-23.94,47.55-38.46c7.31-12.23,8.97-24.88,4.66-35.64c-4.58-11.46-15.42-18.27-26.96-16.96
			c-10.55,1.18-20.46,8.87-27.92,21.61c-8.76,14.99-14.16,36.29-16.03,63.32c-35.9,0-48.92-14.52-51.67-19.32
			c-4.03-7.06-2.44-21.32,7.19-32.04c0.74-0.82,0.94-1.83,0.58-2.79c-0.36-0.96-1.26-1.7-2.39-2.02c-6.37-1.74-11.9-0.57-15.96,3.39
			c-7.68,7.46-8.16,23.8-1.04,35.69c5.55,9.27,30.49,25.73,61.79,25.73c-1.98,10.03-3.89,19.52-7.85,28.84
			c-0.2,0.47-0.73,0.78-1.33,0.78h-0.8c-31.47,0-51.6,7.04-53.87,18.84c-1.54,7.92,5.74,15.96,17.3,19.12
			c3.26,0.88,6.69,1.34,10.18,1.34c9.58,0,27.82-3.53,42.21-27.18c0.32-0.53,0.97-0.83,1.69-0.83c18.22,0.7,112.43,4.2,120.38,3.98
			c4.3-0.14,8.24-0.81,11.79-1.91c0.28,15.94,4.41,28.16,12.3,36.32c8.27,8.57,18.92,14.79,31.64,18.49
			c12.84,3.74,27.17,5.7,42.59,5.86c15.07,0.14,29.97,0.23,44.32,0.23c8.48,0,16.58,0.46,24.04,1.37c7.5,0.92,14.2,2.56,19.9,4.87
			c5.83,2.35,10.47,5.8,13.8,10.24c3.36,4.47,5.06,10.12,5.06,16.76c0,13.79-6.71,25.2-19.97,33.93
			c-13.06,8.6-34.34,12.97-63.29,12.97c-11.29,0-22.56-1.24-33.5-3.67c-10.96-2.44-20.91-5.6-29.59-9.41
			c-8.73-3.83-15.88-8.1-21.27-12.73c-5.61-4.8-8.45-9.6-8.45-14.26c0-1.64,0.34-3.41,1-5.26l-0.72-0.39
			c-1.49-0.8-3.35-0.19-4.07,1.34l-20.91,44.53c-0.64,1.37-0.14,3,1.15,3.78l0.17,0.11c3.33-3.37,6.62-5.08,9.8-5.08
			c3.6,0,8.13,1.48,13.84,4.49c5.4,2.85,12.4,6.04,20.8,9.49c8.37,3.44,18.61,6.48,30.44,9.01c11.84,2.54,26.04,3.84,42.2,3.84
			c19.19,0,36.27-1.99,50.78-5.87c14.47-3.87,26.79-9.31,36.6-16.16c9.77-6.81,17.2-14.69,22.07-23.39
			c4.86-8.69,7.31-17.86,7.31-27.27c0-17.71-4.16-31.31-12.36-40.41C413.95,181.28,403.29,174.53,390.56,170.37 M153.29,70.61
			c0.19-0.04,0.36-0.07,0.48-0.07c0.29,0,0.46,0.16,0.67,0.79c1.21,3.91-6.86,18.84-21.84,27.74
			C136.83,85.15,146.06,72.33,153.29,70.61 M90.9,67.98c3.47-23.14,6.73-45,16.53-54.39c1.96-1.87,4.83-2.95,7.97-2.95
			c3,0.02,5.81,1.14,7.69,3.04c5.39,5.46,6.04,14.94,1.81,26.73c-6.52,18.13-22.14,35.83-36.08,41.11
			C89.55,76.96,90.23,72.42,90.9,67.98 M27.7,152.75c-6.43,0.45-11.18-0.72-12.99-3.21c-1.38-1.92-0.99-4.54,1.08-7.24
			c7.38-9.6,24.44-10.63,31.42-10.63c2.32,0,4.66,0.1,6.91,0.3C45.29,146.25,34.82,151.16,27.7,152.75"/>
		<!-- Letter 'u' -->
		<path class="filled" d="M627.52,145.85h-36.27c-1.38,0-2.51,1.12-2.51,2.5v3.58h1.28c0.46,0,0.84,0.03,1.15,0.04l2.01,0.18
			c1.18,0.11,2.12,1.02,2.27,2.19l0.25,2c0.04,0.34,0.09,0.78,0.09,1.35v93.87c0,10.74-3.86,18.1-11.81,22.49
			c-8.07,4.46-20.34,6.73-36.47,6.73c-16.14,0-28.42-2.27-36.49-6.73c-7.94-4.39-11.8-11.74-11.8-22.49v-93.87
			c0-0.55,0.03-0.99,0.07-1.35l0.25-2c0.15-1.17,1.09-2.09,2.27-2.19l2.01-0.18c0.32-0.01,0.69-0.04,1.15-0.04h1.3v-3.58
			c0-1.38-1.12-2.5-2.51-2.5h-36.28c-1.38,0-2.51,1.12-2.51,2.5v3.58h1.29c0.46,0,0.84,0.03,1.14,0.04l2.01,0.18
			c1.18,0.11,2.12,1.02,2.27,2.19l0.25,2c0.04,0.34,0.09,0.78,0.09,1.35v87.41c0,11.87,1.77,21.73,5.24,29.27
			c3.51,7.63,8.59,13.73,15.12,18.14c6.48,4.39,14.5,7.36,23.84,8.86c9.22,1.47,19.74,2.22,31.3,2.22c11.54,0,22.07-0.75,31.29-2.22
			c9.34-1.5,17.36-4.47,23.84-8.86c6.53-4.42,11.62-10.51,15.12-18.13c3.48-7.57,5.26-17.43,5.26-29.29v-87.41
			c0-0.53,0.03-0.96,0.07-1.3l0.23-2.03c0.14-1.18,1.09-2.1,2.27-2.21l2.02-0.18c0.32-0.01,0.69-0.04,1.16-0.04h1.27v-3.58
			C630.02,146.97,628.9,145.85,627.52,145.85"/>
		<!-- Letter 'i' -->
		<path class="filled" d="M708.79,145.85H672.5c-1.38,0-2.51,1.12-2.51,2.5v3.58h1.29c0.47,0,0.84,0.03,1.16,0.04l1.99,0.18
			c1.17,0.11,2.11,1.01,2.26,2.17l0.26,1.98c0.06,0.36,0.09,0.81,0.09,1.39v133.17c0,0.56-0.03,1.02-0.09,1.37l-0.26,1.99
			c-0.15,1.17-1.09,2.07-2.27,2.18l-1.99,0.18c-0.32,0.03-0.69,0.04-1.16,0.04H670v3.58c0,1.38,1.12,2.51,2.51,2.51h36.28
			c1.38,0,2.51-1.12,2.51-2.51v-3.58h-1.29c-0.47,0-0.84-0.01-1.16-0.04l-1.99-0.18c-1.17-0.1-2.11-1.01-2.27-2.18l-0.26-1.99
			c-0.06-0.36-0.09-0.81-0.09-1.37V157.69c0-0.53,0.03-0.96,0.07-1.3l0.24-2.03c0.14-1.18,1.08-2.11,2.27-2.21l2.03-0.18
			c0.3-0.01,0.69-0.04,1.14-0.04h1.29v-3.58C711.3,146.97,710.17,145.85,708.79,145.85"/>
		<!-- Letter 'r' -->
		<path class="filled" d="M913.34,296.52c-1.9-0.21-3.67-1.11-4.96-2.57c-0.93-1.04-2.01-2.47-3.24-4.25l-29.89-46.24c-1.31-2.04-1.6-4.63-0.75-6.91
			c0.87-2.31,2.73-4.04,5.08-4.74c8.71-2.56,15.47-6.47,20.09-11.64c6.64-7.44,10-17.6,10-30.19c0-14.21-4.39-25.24-13.06-32.8
			c-8.73-7.61-22.63-11.31-42.48-11.31h-97.04c-1.39,0-2.52,1.13-2.52,2.51v3.57h1.29c0.46,0,0.83,0.03,1.14,0.04l2.02,0.17
			c1.17,0.12,2.11,1.03,2.27,2.2l0.24,2c0.04,0.34,0.09,0.78,0.09,1.34v133.17c0,0.54-0.04,0.98-0.09,1.34l-0.24,2
			c-0.14,1.17-1.08,2.09-2.27,2.2l-2.02,0.17c-0.31,0.03-0.69,0.04-1.14,0.04h-1.29v3.57c0,1.39,1.13,2.51,2.52,2.51h36.26
			c1.38,0,2.51-1.13,2.51-2.51v-3.57h-1.29c-0.46,0-0.83-0.02-1.14-0.04l-2.01-0.17c-1.17-0.12-2.11-1.03-2.27-2.2l-0.24-2
			c-0.04-0.36-0.08-0.8-0.08-1.34v-44.74c0-5.69,4.6-10.28,10.28-10.28h37.4c2.69,0,5.16,1.36,6.59,3.64l33.44,53.3
			c1.06,1.67-0.14,3.84-2.11,3.84c-1.39,0-2.51,1.13-2.51,2.51v1.06c0,1.39,1.13,2.51,2.51,2.51h39.79c1.38,0,2.51-1.13,2.51-2.51
			v-3.57h-1.29C914.67,296.62,913.97,296.58,913.34,296.52 M799.1,213.3c-5.69,0-10.28-4.6-10.28-10.28v-24.37
			c0-5.69,4.6-10.28,10.28-10.28h51.21c6.71,0,12.31,0.44,16.61,1.3c4.19,0.83,7.51,2.14,9.89,3.87c2.33,1.7,3.96,3.81,4.84,6.29
			c0.93,2.6,1.39,5.81,1.39,9.56c0,7.4-2.33,13.3-6.92,17.53c-4.62,4.26-12.81,6.4-24.36,6.4H799.1z"/>
		<!-- Letter 'e' -->
		<path class="filled" d="M1094.14,270.81h-3.58v1.29c0,0.49-0.01,0.9-0.04,1.29c-0.26,3.43-2.77,6.3-6.13,7c-1.28,0.26-2.83,0.4-4.57,0.4h-86.41
			c-5.68,0-10.28-4.6-10.28-10.28v-26.73c0-5.65,4.63-10.28,10.28-10.28h48.56c2.93,0,5.23,0.3,6.85,0.91l1.26,0.48
			c0.8,0.3,1.39,0.98,1.57,1.82l0.28,1.33c0.13,0.61,0.2,1.31,0.2,2.09v1.28h3.58c1.39,0,2.51-1.12,2.51-2.51v-33.06
			c0-1.38-1.12-2.51-2.51-2.51h-3.58v1.29c0,0.78-0.08,1.5-0.24,2.13l-0.28,1.13c-0.17,0.71-0.65,1.3-1.3,1.63l-1.03,0.53
			c-2.03,1-4.68,1.51-7.89,1.51h-47.98c-5.68,0-10.28-4.6-10.28-10.28v-23.21c0-5.68,4.6-10.28,10.28-10.28h79.95
			c3.04,0,5.37,0.34,6.91,1.03l1.21,0.54l0.79,1.06c0.83,1.14,1.24,2.54,1.24,4.3v1.28h3.58c1.38,0,2.51-1.12,2.51-2.51v-31
			c0-1.39-1.12-2.51-2.51-2.51h-2.09c-1,0-1.85,0.61-2.29,1.5c-1.22,2.45-3.69,4.17-6.61,4.3c-0.84,0.04-1.86,0.07-3.03,0.07H951.38
			c-1.38,0-2.51,1.12-2.51,2.51v3.58h1.29c0.46,0,0.84,0.03,1.14,0.04l2,0.18c1.17,0.11,2.11,1,2.26,2.17l0.27,1.98
			c0.04,0.36,0.08,0.82,0.08,1.39v133.17c0,0.56-0.03,1.02-0.08,1.37l-0.26,1.99c-0.15,1.17-1.09,2.07-2.26,2.18l-2.01,0.18
			c-0.3,0.03-0.69,0.04-1.14,0.04h-1.29v3.58c0,1.38,1.12,2.5,2.51,2.5h130.19c0.6,0,1.14,0.02,1.63,0.04
			c2.81,0.14,5.2,1.77,6.44,4.09c0.46,0.86,1.3,1.43,2.26,1.43h2.23c1.38,0,2.51-1.12,2.51-2.51v-32.46
			C1096.64,271.93,1095.52,270.81,1094.14,270.81"/>
		<!-- Copyright inner -->
		<path class="filled" d="M1122.95,152.69c2.19,0,3.91,1.1,4.75,2.92h4.02c-0.88-3.92-4.28-6.73-8.77-6.73c-5.37,0-9.18,3.81-9.18,8.98
			c0,5.17,3.81,8.98,9.18,8.98c4.49,0,7.88-2.82,8.77-6.73h-4.02c-0.83,1.83-2.56,2.92-4.75,2.92c-3.03,0-5.16-2.09-5.16-5.17
			C1117.79,154.77,1119.92,152.69,1122.95,152.69"/>
		<!-- Copyright outer -->
		<path class="filled" d="M1122.95,140.11c-10.65,0-18.16,7.52-18.16,17.74c0,10.23,7.51,17.74,18.16,17.74c10.65,0,18.16-7.51,18.16-17.74
			C1141.11,147.63,1133.6,140.11,1122.95,140.11 M1122.95,171.84c-8.5,0-14.19-5.9-14.19-13.98c0-8.09,5.74-13.99,14.19-13.99
			s14.2,5.9,14.2,13.99C1137.15,165.94,1131.45,171.84,1122.95,171.84"/>
	</g>
</svg>